<svg width="200" height="200" viewBox="0 0 600 640" xmlns="http://www.w3.org/2000/svg">
  <!-- Fondo azul oscuro -->
  <rect x="0" y="0" width="600" height="640" rx="60" fill="#1e2a45"/>

  <!-- Sombra del plato -->
  <ellipse cx="300" cy="300" rx="175" ry="18" fill="#17213a" opacity="0.4"/>

  <!-- Plato -->
  <circle cx="300" cy="255" r="168" fill="#e8e8e8"/>
  <circle cx="300" cy="255" r="160" fill="#f5f5f5"/>
  <circle cx="300" cy="255" r="168" fill="none" stroke="#c0392b" stroke-width="5"/>
  <circle cx="300" cy="255" r="155" fill="none" stroke="#b0b8c8" stroke-width="2.5"/>
  <circle cx="300" cy="255" r="148" fill="none" stroke="#ffffff" stroke-width="2"/>
  <circle cx="300" cy="255" r="140" fill="#ffffff"/>
  <ellipse cx="270" cy="210" rx="60" ry="38" fill="white" opacity="0.45"/>

  <!-- TENEDOR -->
  <rect x="264" y="275" width="14" height="70" rx="5" fill="#c0392b"/>
  <rect x="267" y="220" width="8" height="58" rx="2" fill="#c0392b"/>
  <rect x="262" y="175" width="4" height="50" rx="2" fill="#c0392b"/>
  <rect x="269" y="175" width="4" height="50" rx="2" fill="#c0392b"/>
  <rect x="276" y="175" width="4" height="50" rx="2" fill="#c0392b"/>
  <rect x="262" y="218" width="18" height="6" rx="2" fill="#c0392b"/>

  <!-- CUCHILLO -->
  <rect x="322" y="275" width="14" height="70" rx="5" fill="#c0392b"/>
  <rect x="324" y="185" width="10" height="92" rx="2" fill="#c0392b"/>
  <path d="M324 185 Q329 170 334 185 Z" fill="#c0392b"/>

  <!-- POS -->
  <text x="300" y="480" text-anchor="middle" font-family="Arial Black, Arial" font-size="88" font-weight="900" fill="#ffffff" letter-spacing="4">POS</text>

  <!-- RESTAURANTE -->
  <text x="300" y="528" text-anchor="middle" font-family="Arial, sans-serif" font-size="24" font-weight="400" fill="#8a9ab8" letter-spacing="10">RESTAURANTE</text>
</svg>
